<svg width="18" height="18" viewBox="0 0 18 18" fill="none" xmlns="http://www.w3.org/2000/svg">
<g clip-path="url(#clip0_87_120)">
<path fill-rule="evenodd" clip-rule="evenodd" d="M10.1895 1.5C10.5417 1.50009 10.8826 1.62408 11.1525 1.85025L11.25 1.9395L14.5605 5.25C14.8095 5.49902 14.963 5.82771 14.994 6.1785L15 6.3105V15C15.0001 15.3784 14.8572 15.7429 14.5999 16.0204C14.3426 16.2979 13.9899 16.4679 13.6125 16.4963L13.5 16.5H4.5C4.12157 16.5001 3.75708 16.3572 3.47959 16.0999C3.2021 15.8426 3.03213 15.4899 3.00375 15.1125L3 15V3C2.99988 2.62157 3.1428 2.25708 3.40012 1.97959C3.65744 1.7021 4.01013 1.53213 4.3875 1.50375L4.5 1.5H10.1895ZM9 3H4.5V15H13.5V7.5H10.125C9.84534 7.49999 9.57571 7.39581 9.36869 7.20779C9.16166 7.01976 9.0321 6.76137 9.00525 6.483L9 6.375V3ZM9.741 8.886C9.92074 10.0282 10.5181 11.0631 11.4172 11.79C12.0825 12.3278 11.4742 13.3807 10.6762 13.074C9.59732 12.6588 8.40268 12.6588 7.32375 13.074C6.525 13.3815 5.91675 12.3278 6.582 11.79C7.48124 11.0631 8.07858 10.0282 8.25825 8.886C8.39175 8.04075 9.60825 8.0415 9.741 8.886ZM8.9985 10.614L8.4825 11.511H9.5175L8.9985 10.614ZM10.5 3.3105V6H13.1895L10.5 3.3105Z" fill="black"/>
</g>
<defs>
<clipPath id="clip0_87_120">
<rect width="18" height="18" fill="white"/>
</clipPath>
</defs>
</svg>
