<svg width="25" height="25" viewBox="0 0 25 25" fill="none" xmlns="http://www.w3.org/2000/svg">
<g clip-path="url(#clip0_118_1449)">
<path d="M2.73438 0H22.2656C23.775 0 25 1.225 25 2.73438V22.2656C25 22.9908 24.7119 23.6863 24.1991 24.1991C23.6863 24.7119 22.9908 25 22.2656 25H2.73438C2.00917 25 1.31367 24.7119 0.80088 24.1991C0.288085 23.6863 0 22.9908 0 22.2656L0 2.73438C0 1.225 1.225 0 2.73438 0ZM2.34375 2.73438V22.2656C2.34375 22.4813 2.51875 22.6562 2.73438 22.6562H22.2656C22.3692 22.6562 22.4686 22.6151 22.5418 22.5418C22.6151 22.4686 22.6562 22.3692 22.6562 22.2656V2.73438C22.6562 2.63077 22.6151 2.53142 22.5418 2.45816C22.4686 2.38491 22.3692 2.34375 22.2656 2.34375H2.73438C2.63077 2.34375 2.53142 2.38491 2.45816 2.45816C2.38491 2.53142 2.34375 2.63077 2.34375 2.73438ZM18.3594 4.6875C18.6702 4.6875 18.9682 4.81097 19.188 5.03073C19.4078 5.2505 19.5312 5.54857 19.5312 5.85938V17.5781C19.5312 17.8889 19.4078 18.187 19.188 18.4068C18.9682 18.6265 18.6702 18.75 18.3594 18.75C18.0486 18.75 17.7505 18.6265 17.5307 18.4068C17.311 18.187 17.1875 17.8889 17.1875 17.5781V5.85938C17.1875 5.54857 17.311 5.2505 17.5307 5.03073C17.7505 4.81097 18.0486 4.6875 18.3594 4.6875ZM5.46875 5.85938C5.46875 5.54857 5.59222 5.2505 5.81198 5.03073C6.03175 4.81097 6.32982 4.6875 6.64062 4.6875C6.95143 4.6875 7.2495 4.81097 7.46927 5.03073C7.68903 5.2505 7.8125 5.54857 7.8125 5.85938V14.4531C7.8125 14.7639 7.68903 15.062 7.46927 15.2818C7.2495 15.5015 6.95143 15.625 6.64062 15.625C6.32982 15.625 6.03175 15.5015 5.81198 15.2818C5.59222 15.062 5.46875 14.7639 5.46875 14.4531V5.85938ZM12.5 4.6875C12.8108 4.6875 13.1089 4.81097 13.3286 5.03073C13.5484 5.2505 13.6719 5.54857 13.6719 5.85938V11.3281C13.6719 11.6389 13.5484 11.937 13.3286 12.1568C13.1089 12.3765 12.8108 12.5 12.5 12.5C12.1892 12.5 11.8911 12.3765 11.6714 12.1568C11.4516 11.937 11.3281 11.6389 11.3281 11.3281V5.85938C11.3281 5.54857 11.4516 5.2505 11.6714 5.03073C11.8911 4.81097 12.1892 4.6875 12.5 4.6875Z" fill="black"/>
</g>
<defs>
<clipPath id="clip0_118_1449">
<rect width="25" height="25" fill="white"/>
</clipPath>
</defs>
</svg>
