<svg width="14" height="14" viewBox="0 0 14 14" fill="none" xmlns="http://www.w3.org/2000/svg">
<g id="octicon:cache-16" clip-path="url(#clip0_35_91)">
<path id="Vector" d="M2.1875 5.0085V7C2.1875 7.217 2.39575 7.6125 3.21037 8.01413C3.97512 8.39038 5.08638 8.666 6.37787 8.73337C6.46394 8.73786 6.54828 8.75924 6.62608 8.79632C6.70388 8.8334 6.77361 8.88543 6.8313 8.94946C6.88899 9.01349 6.9335 9.08825 6.9623 9.16948C6.99109 9.2507 7.00361 9.33681 6.99913 9.42288C6.99464 9.50894 6.97325 9.59328 6.93618 9.67108C6.8991 9.74888 6.84707 9.81861 6.78304 9.8763C6.71901 9.93399 6.64425 9.9785 6.56302 10.0073C6.48179 10.0361 6.39569 10.0486 6.30963 10.0441C4.89038 9.96975 3.59538 9.66612 2.63112 9.191C2.4791 9.11709 2.33102 9.03531 2.1875 8.946V10.9375C2.1875 11.0539 2.23825 11.2157 2.43425 11.4196C2.63288 11.627 2.95138 11.8422 3.39762 12.0382C4.28575 12.4294 5.55888 12.6875 7 12.6875C7.35525 12.6875 7.70175 12.6718 8.03512 12.642C8.12339 12.6295 8.21328 12.635 8.29933 12.6583C8.38539 12.6816 8.46579 12.7222 8.53567 12.7776C8.60554 12.8329 8.66341 12.902 8.70577 12.9804C8.74812 13.0589 8.77407 13.1451 8.78203 13.2339C8.79 13.3227 8.77981 13.4122 8.75209 13.4969C8.72437 13.5816 8.6797 13.6598 8.6208 13.7268C8.5619 13.7937 8.48999 13.8479 8.40946 13.8862C8.32893 13.9244 8.24146 13.9459 8.15238 13.9493C7.77875 13.9825 7.39375 14 7 14C5.42063 14 3.95938 13.72 2.86913 13.2396C2.324 12.9999 1.84275 12.698 1.4875 12.3288C1.1305 11.9569 0.875 11.4852 0.875 10.9375V3.0625C0.875 2.51475 1.1305 2.04313 1.4875 1.67037C1.84275 1.30288 2.324 1.00013 2.86913 0.760375C3.95938 0.28 5.42063 0 7 0C8.58025 0 10.0415 0.28 11.1309 0.760375C11.676 1.00013 12.1573 1.302 12.5125 1.67125C12.8695 2.04312 13.125 2.51475 13.125 3.0625C13.125 3.61025 12.8695 4.08187 12.5125 4.45463C12.1573 4.82212 11.676 5.12488 11.1318 5.36462C10.0406 5.845 8.57937 6.125 7 6.125C5.42063 6.125 3.95938 5.845 2.86913 5.36462C2.63371 5.26232 2.40592 5.14331 2.1875 5.0085ZM2.1875 3.0625C2.1875 3.17887 2.23825 3.34075 2.43425 3.54463C2.63288 3.752 2.95138 3.96725 3.39762 4.16325C4.28575 4.55437 5.55888 4.8125 7 4.8125C8.44025 4.8125 9.71338 4.55437 10.6033 4.16325C11.0478 3.96725 11.3671 3.75113 11.5658 3.54375C11.7618 3.34075 11.8125 3.17887 11.8125 3.0625C11.8125 2.94613 11.7618 2.78425 11.5658 2.58037C11.3671 2.373 11.0486 2.15775 10.6024 1.96175C9.71425 1.57063 8.44112 1.3125 7 1.3125C5.55975 1.3125 4.28662 1.57063 3.39675 1.96175C2.95225 2.15775 2.63288 2.37388 2.43425 2.58125C2.23825 2.78425 2.1875 2.94613 2.1875 3.0625Z" fill="black"/>
<path id="Vector_2" d="M12.6789 6.63425C12.6946 6.56186 12.6854 6.48626 12.6527 6.41978C12.62 6.35329 12.5658 6.29982 12.4988 6.26808C12.4319 6.23633 12.3562 6.22817 12.284 6.24493C12.2119 6.26169 12.1475 6.30238 12.1014 6.36038L8.92951 10.4073C8.89164 10.4557 8.86814 10.5138 8.86168 10.5749C8.85522 10.636 8.86606 10.6977 8.89296 10.753C8.91987 10.8083 8.96176 10.8549 9.01385 10.8875C9.06595 10.9201 9.12617 10.9374 9.18763 10.9375H11.0488L10.5071 13.4943C10.4916 13.5673 10.5015 13.6434 10.5351 13.7101C10.5686 13.7767 10.6239 13.8299 10.6918 13.8609C10.7598 13.8919 10.8362 13.8988 10.9086 13.8805C10.9809 13.8622 11.0449 13.8198 11.0899 13.7603L13.8243 10.1509C13.861 10.1022 13.8835 10.0442 13.8891 9.98347C13.8948 9.92272 13.8834 9.8616 13.8562 9.80697C13.829 9.75235 13.7872 9.70638 13.7353 9.67424C13.6834 9.64209 13.6236 9.62504 13.5626 9.625H12.0069L12.6789 6.63425Z" fill="black"/>
</g>
<defs>
<clipPath id="clip0_35_91">
<rect width="14" height="14" fill="white"/>
</clipPath>
</defs>
</svg>
