<svg width="14" height="14" viewBox="0 0 14 14" fill="none" xmlns="http://www.w3.org/2000/svg">
<g id="carbon:demo" clip-path="url(#clip0_35_69)">
<path id="Vector" d="M8.75 0.875V6.125L13.125 3.5L8.75 0.875Z" fill="black"/>
<path id="Vector_2" d="M12.25 6.125V9.625H1.75V2.625H6.125V1.75H1.75C1.51794 1.75 1.29538 1.84219 1.13128 2.00628C0.967187 2.17038 0.875 2.39294 0.875 2.625V9.625C0.875 9.85706 0.967187 10.0796 1.13128 10.2437C1.29538 10.4078 1.51794 10.5 1.75 10.5H5.25V12.25H3.5V13.125H10.5V12.25H8.75V10.5H12.25C12.4821 10.5 12.7046 10.4078 12.8687 10.2437C13.0328 10.0796 13.125 9.85706 13.125 9.625V6.125H12.25ZM7.875 12.25H6.125V10.5H7.875V12.25Z" fill="black"/>
</g>
<defs>
<clipPath id="clip0_35_69">
<rect width="14" height="14" fill="white"/>
</clipPath>
</defs>
</svg>
