<svg width="29" height="29" viewBox="0 0 29 29" fill="none" xmlns="http://www.w3.org/2000/svg">
<g id="solar:gallery-add-bold">
<path id="Vector" d="M26.5837 15.3434C26.5812 17.1197 26.5679 18.6277 26.4677 19.8662C26.3504 21.3041 26.11 22.5052 25.5735 23.5021C25.3394 23.9392 25.0421 24.3394 24.6914 24.6899C23.6849 25.6964 22.404 26.152 20.78 26.3695C19.1935 26.5833 17.1587 26.5833 14.5644 26.5833H14.4363C11.8408 26.5833 9.80837 26.5833 8.22062 26.3695C6.59783 26.152 5.31578 25.6964 4.31045 24.6899C3.4187 23.7981 2.95712 22.6889 2.71303 21.3126C2.47137 19.9593 2.42787 18.2773 2.41941 16.188C2.41699 15.6564 2.41699 15.0945 2.41699 14.5V14.4348C2.41699 11.8393 2.41699 9.80683 2.63087 8.21908C2.84837 6.59629 3.30391 5.31425 4.31045 4.30892C5.31578 3.30238 6.59783 2.84683 8.22062 2.62933C9.63195 2.43963 11.4469 2.41788 13.6569 2.41546C13.8806 2.41546 14.0951 2.50432 14.2533 2.66249C14.4115 2.82066 14.5003 3.03519 14.5003 3.25888C14.5003 3.48256 14.4115 3.69709 14.2533 3.85526C14.0951 4.01343 13.8806 4.10229 13.6569 4.10229C11.4155 4.10471 9.74916 4.12404 8.44537 4.29925C7.00866 4.49258 6.14228 4.85992 5.50187 5.50033C4.86145 6.14075 4.49533 7.00833 4.30199 8.44625C4.10503 9.90833 4.10262 11.8272 4.10262 14.5V15.4473L5.22878 14.4638C5.72242 14.0318 6.36174 13.8037 7.01729 13.8254C7.67284 13.8472 8.29563 14.1173 8.75953 14.581L13.5808 19.4022C13.9548 19.7765 14.449 20.0068 14.9761 20.0525C15.5033 20.0983 16.0297 19.9566 16.4627 19.6523L16.7986 19.4167C17.423 18.9778 18.1779 18.7638 18.9398 18.8097C19.7017 18.8555 20.4254 19.1586 20.9927 19.6693L24.1742 22.533C24.4944 21.86 24.6854 20.9767 24.7869 19.7297C24.8823 18.5552 24.8956 17.1293 24.8968 15.3434C24.8968 15.1197 24.9857 14.9052 25.1439 14.747C25.302 14.5889 25.5166 14.5 25.7402 14.5C25.9639 14.5 26.1785 14.5889 26.3366 14.747C26.4948 14.9052 26.5837 15.1197 26.5837 15.3434Z" fill="#051776"/>
<path id="Vector_2" fill-rule="evenodd" clip-rule="evenodd" d="M21.1455 13.2917C18.5826 13.2917 17.3006 13.2917 16.5043 12.4954C15.708 11.6991 15.708 10.417 15.708 7.85417C15.708 5.29129 15.708 4.00925 16.5043 3.21296C17.3006 2.41667 18.5826 2.41667 21.1455 2.41667C23.7084 2.41667 24.9904 2.41667 25.7867 3.21296C26.583 4.00925 26.583 5.29129 26.583 7.85417C26.583 10.417 26.583 11.6991 25.7867 12.4954C24.9904 13.2917 23.7084 13.2917 21.1455 13.2917ZM22.0518 5.4375C22.0518 5.19715 21.9563 4.96664 21.7863 4.79669C21.6164 4.62673 21.3859 4.53125 21.1455 4.53125C20.9052 4.53125 20.6746 4.62673 20.5047 4.79669C20.3347 4.96664 20.2393 5.19715 20.2393 5.4375V6.94792H18.7288C18.4885 6.94792 18.258 7.0434 18.088 7.21335C17.9181 7.38331 17.8226 7.61382 17.8226 7.85417C17.8226 8.09452 17.9181 8.32503 18.088 8.49498C18.258 8.66494 18.4885 8.76042 18.7288 8.76042H20.2393V10.2708C20.2393 10.5112 20.3347 10.7417 20.5047 10.9116C20.6746 11.0816 20.9052 11.1771 21.1455 11.1771C21.3859 11.1771 21.6164 11.0816 21.7863 10.9116C21.9563 10.7417 22.0518 10.5112 22.0518 10.2708V8.76042H23.5622C23.8025 8.76042 24.033 8.66494 24.203 8.49498C24.3729 8.32503 24.4684 8.09452 24.4684 7.85417C24.4684 7.61382 24.3729 7.38331 24.203 7.21335C24.033 7.0434 23.8025 6.94792 23.5622 6.94792H22.0518V5.4375Z" fill="#051776"/>
</g>
</svg>
