<svg width="29" height="29" viewBox="0 0 29 29" fill="none" xmlns="http://www.w3.org/2000/svg">
<g id="ph:camera-bold">
<path id="Vector" d="M23.5625 5.89063H20.6648L19.2578 3.7768C19.1335 3.59042 18.965 3.43767 18.7673 3.33213C18.5697 3.2266 18.349 3.17154 18.125 3.17188H10.875C10.651 3.17154 10.4303 3.2266 10.2327 3.33213C10.035 3.43767 9.86653 3.59042 9.74219 3.7768L8.3341 5.89063H5.4375C4.59627 5.89063 3.78949 6.22481 3.19465 6.81965C2.5998 7.41449 2.26563 8.22127 2.26562 9.0625V21.75C2.26562 22.5912 2.5998 23.398 3.19465 23.9929C3.78949 24.5877 4.59627 24.9219 5.4375 24.9219H23.5625C23.979 24.9219 24.3915 24.8398 24.7763 24.6804C25.1612 24.521 25.5108 24.2874 25.8054 23.9929C26.0999 23.6983 26.3335 23.3487 26.4929 22.9638C26.6523 22.579 26.7344 22.1665 26.7344 21.75V9.0625C26.7344 8.64596 26.6523 8.23351 26.4929 7.84868C26.3335 7.46385 26.0999 7.11418 25.8054 6.81965C25.5108 6.52511 25.1612 6.29147 24.7763 6.13207C24.3915 5.97267 23.979 5.89063 23.5625 5.89063ZM24.0156 21.75C24.0156 21.8702 23.9679 21.9854 23.8829 22.0704C23.7979 22.1554 23.6827 22.2031 23.5625 22.2031H5.4375C5.31732 22.2031 5.20207 22.1554 5.11709 22.0704C5.03211 21.9854 4.98438 21.8702 4.98438 21.75V9.0625C4.98438 8.94233 5.03211 8.82707 5.11709 8.74209C5.20207 8.65712 5.31732 8.60938 5.4375 8.60938H9.0625C9.28655 8.60971 9.50721 8.55466 9.70484 8.44912C9.90248 8.34358 10.071 8.19083 10.1953 8.00445L11.6023 5.89063H17.3966L18.8047 8.00445C18.929 8.19083 19.0975 8.34358 19.2952 8.44912C19.4928 8.55466 19.7135 8.60971 19.9375 8.60938H23.5625C23.6827 8.60938 23.7979 8.65712 23.8829 8.74209C23.9679 8.82707 24.0156 8.94233 24.0156 9.0625V21.75ZM14.5 9.51563C13.4246 9.51563 12.3733 9.83453 11.4791 10.432C10.5849 11.0295 9.88796 11.8787 9.47641 12.8723C9.06485 13.8659 8.95717 14.9592 9.16698 16.0139C9.37679 17.0687 9.89466 18.0376 10.6551 18.798C11.4156 19.5585 12.3844 20.0763 13.4392 20.2861C14.494 20.496 15.5873 20.3883 16.5808 19.9767C17.5744 19.5652 18.4236 18.8682 19.0211 17.974C19.6186 17.0798 19.9375 16.0286 19.9375 14.9531C19.936 13.5115 19.3626 12.1293 18.3432 11.1099C17.3238 10.0905 15.9417 9.51713 14.5 9.51563ZM14.5 17.6719C13.9623 17.6719 13.4366 17.5124 12.9895 17.2137C12.5424 16.9149 12.194 16.4903 11.9882 15.9935C11.7824 15.4968 11.7286 14.9501 11.8335 14.4227C11.9384 13.8953 12.1973 13.4109 12.5776 13.0307C12.9578 12.6505 13.4422 12.3915 13.9696 12.2866C14.497 12.1817 15.0436 12.2356 15.5404 12.4413C16.0372 12.6471 16.4618 12.9956 16.7606 13.4427C17.0593 13.8898 17.2188 14.4154 17.2188 14.9531C17.2188 15.6742 16.9323 16.3657 16.4224 16.8756C15.9126 17.3854 15.2211 17.6719 14.5 17.6719Z" fill="#223CC5"/>
</g>
</svg>
