<svg width="29" height="29" viewBox="0 0 29 29" fill="none" xmlns="http://www.w3.org/2000/svg">
<g id="ri:save-line">
<path id="Vector" d="M8.45833 22.9583V15.7083H20.5417V22.9583H22.9583V9.45883L19.5412 6.04167H6.04167V22.9583H8.45833ZM4.83333 3.625H20.5417L25.375 8.45833V24.1667C25.375 24.4871 25.2477 24.7945 25.0211 25.0211C24.7945 25.2477 24.4871 25.375 24.1667 25.375H4.83333C4.51286 25.375 4.20552 25.2477 3.97891 25.0211C3.75231 24.7945 3.625 24.4871 3.625 24.1667V4.83333C3.625 4.51286 3.75231 4.20552 3.97891 3.97891C4.20552 3.75231 4.51286 3.625 4.83333 3.625ZM10.875 18.125V22.9583H18.125V18.125H10.875Z" fill="#051776"/>
</g>
</svg>
