<svg width="14" height="14" viewBox="0 0 14 14" fill="none" xmlns="http://www.w3.org/2000/svg">
<g id="tdesign:app">
<path id="Vector" d="M1.1665 1.16667H6.4165V6.41667H1.1665V1.16667ZM2.33317 2.33333V5.25H5.24984V2.33333H2.33317ZM10.2082 2.33333C9.8214 2.33333 9.45046 2.48698 9.17697 2.76047C8.90348 3.03396 8.74984 3.40489 8.74984 3.79167C8.74984 4.17844 8.90348 4.54937 9.17697 4.82286C9.45046 5.09635 9.8214 5.25 10.2082 5.25C10.5949 5.25 10.9659 5.09635 11.2394 4.82286C11.5129 4.54937 11.6665 4.17844 11.6665 3.79167C11.6665 3.40489 11.5129 3.03396 11.2394 2.76047C10.9659 2.48698 10.5949 2.33333 10.2082 2.33333ZM7.58317 3.79167C7.58317 3.44695 7.65107 3.1056 7.78299 2.78712C7.91491 2.46864 8.10826 2.17927 8.35202 1.93551C8.59577 1.69176 8.88515 1.4984 9.20363 1.36648C9.52211 1.23456 9.86345 1.16667 10.2082 1.16667C10.5529 1.16667 10.8942 1.23456 11.2127 1.36648C11.5312 1.4984 11.8206 1.69176 12.0643 1.93551C12.3081 2.17927 12.5014 2.46864 12.6334 2.78712C12.7653 3.1056 12.8332 3.44695 12.8332 3.79167C12.8332 4.48786 12.5566 5.15554 12.0643 5.64782C11.572 6.1401 10.9044 6.41667 10.2082 6.41667C9.51198 6.41667 8.8443 6.1401 8.35202 5.64782C7.85973 5.15554 7.58317 4.48786 7.58317 3.79167ZM1.1665 7.58333H6.4165V12.8333H1.1665V7.58333ZM2.33317 8.75V11.6667H5.24984V8.75H2.33317ZM7.58317 7.58333H12.8332V12.8333H7.58317V7.58333ZM8.74984 8.75V11.6667H11.6665V8.75H8.74984Z" fill="black"/>
</g>
</svg>
