<svg width="16" height="16" viewBox="0 0 16 16" fill="none" xmlns="http://www.w3.org/2000/svg">
<g id="wpf:renew-subscription" clip-path="url(#clip0_114_1035)">
<path id="Vector" d="M2.46154 0V11.6923C2.46154 12.0338 2.18769 12.3077 1.84615 12.3077C1.50462 12.3077 1.23077 12.0338 1.23077 11.6923V4.30769H1.84615V3.07692H0V11.6923C0 12.7046 0.833846 13.5385 1.84615 13.5385H8C7.87692 13.1692 7.80738 12.7385 7.80738 12.3077H3.57785C3.648 12.1132 3.69292 11.9095 3.69292 11.6923V1.23077H13.5391V8C13.9698 8.12308 14.4006 8.30769 14.7698 8.61539V0H2.46154ZM4.92308 2.46154V4.92308H12.3077V2.46154H4.92308ZM4.92308 6.15385V7.38462H8V6.15385H4.92308ZM9.23077 6.15385V7.38462H12.3077V6.15385H9.23077ZM4.92308 8V9.23077H8V8H4.92308ZM12.3077 8.61539C10.2622 8.61539 8.61539 10.2622 8.61539 12.3077C8.61539 14.3532 10.2622 16 12.3077 16V14.7692C10.9071 14.7692 9.84615 13.7083 9.84615 12.3077C9.84615 10.9071 10.9071 9.84615 12.3077 9.84615C13.7083 9.84615 14.7692 10.9071 14.7692 12.3077C14.7692 12.8418 14.6172 13.3354 14.3458 13.7311L13.5385 12.9231L13.2308 15.6923L16 15.3846L15.2308 14.6154C15.7422 13.9729 16 13.1551 16 12.3077C16 10.2622 14.3532 8.61539 12.3077 8.61539ZM4.92308 9.84615V11.0769H8V9.84615H4.92308Z" fill="black"/>
</g>
<defs>
<clipPath id="clip0_114_1035">
<rect width="16" height="16" fill="white"/>
</clipPath>
</defs>
</svg>
